<?xml version="1.0" encoding="UTF-8"?>
<svg xmlns="http://www.w3.org/2000/svg" id="Layer_1" data-name="Layer 1" viewBox="0 0 24 24">
  <style>
      .icon {
        fill: #b8ddfa;
      }
    </style>
  <path class="icon" d="m23.959,19.968l-1.077-7c-.19-1.237-1.034-2.285-2.202-2.735-.256-.1-.547.029-.646.287-.099.258.029.547.287.646.834.321,1.437,1.07,1.573,1.954l.597,3.88H1.51l.597-3.88c.136-.884.739-1.633,1.573-1.954.258-.1.386-.389.287-.646-.1-.258-.39-.384-.646-.287-1.167.45-2.012,1.498-2.202,2.735L.042,19.968c-.156,1.011.137,2.035.803,2.812.666.775,1.634,1.221,2.656,1.221h16.999c1.022,0,1.991-.445,2.657-1.221.665-.776.958-1.801.803-2.812Zm-1.318-1.988v.004s-.004-.002,0-.004Zm-21.282,0s.004.003,0,.004v-.004Zm5.702,5.02h-3.56c-.73,0-1.422-.318-1.897-.872-.476-.555-.684-1.286-.573-2.008l.326-2.12h6.332l-.627,5Zm1.008,0l.627-5h6.608l.627,5h-7.863Zm14.328-.872c-.476.554-1.167.872-1.897.872h-3.56l-.627-5h6.333l.326,2.12c.111.722-.099,1.453-.574,2.008Zm-12.157-7.346c.488.477,1.128.714,1.767.714.632,0,1.262-.233,1.736-.697l3.207-2.849c1.322-1.322,2.051-3.08,2.051-4.95s-.729-3.627-2.051-4.95c-1.321-1.322-3.079-2.05-4.949-2.05s-3.627.728-4.95,2.05-2.05,3.08-2.05,4.95.728,3.627,2.072,4.97l3.167,2.812ZM7.757,2.757c1.133-1.133,2.64-1.757,4.243-1.757s3.109.624,4.242,1.757c1.134,1.133,1.758,2.64,1.758,4.243s-.624,3.109-1.736,4.222l-3.203,2.845c-.585.573-1.537.572-2.14-.017l-3.164-2.808c-2.339-2.339-2.339-6.146,0-8.485Zm4.243,7.223c1.648,0,2.99-1.341,2.99-2.99s-1.342-2.99-2.99-2.99-2.99,1.341-2.99,2.99,1.341,2.99,2.99,2.99Zm0-4.98c1.098,0,1.99.893,1.99,1.99s-.893,1.99-1.99,1.99-1.99-.893-1.99-1.99.893-1.99,1.99-1.99Z"/>
</svg>
