<?xml version="1.0" encoding="UTF-8"?>
<svg id="Layer_1" xmlns="http://www.w3.org/2000/svg" version="1.1" viewBox="0 0 100 100">
  <!-- Generator: Adobe Illustrator 29.6.1, SVG Export Plug-In . SVG Version: 2.1.1 Build 9)  -->
  <defs>
    <style>
      .st0 {
        fill: #9d6d53;
      }
    </style>
  </defs>
  <path class="st0" d="M97.9,25.8c-1.2-4.3-4.6-7.8-8.8-8.9-7.8-2.1-39.1-2.1-39.1-2.1,0,0-31.3,0-39.1,2.1-4.3,1.2-7.7,4.6-8.8,8.9C0,33.6,0,50,0,50c0,0,0,16.4,2.1,24.2,1.2,4.3,4.6,7.8,8.8,8.9,7.8,2.1,39.1,2.1,39.1,2.1,0,0,31.3,0,39.1-2.1,4.3-1.2,7.7-4.6,8.8-8.9,2.1-7.8,2.1-24.2,2.1-24.2,0,0,0-16.4-2.1-24.2ZM39.8,64.9v-29.7l26.1,14.9-26.1,14.9h0Z"/>
</svg>