<?xml version="1.0" encoding="UTF-8"?>
<svg id="Layer_1" xmlns="http://www.w3.org/2000/svg" version="1.1" viewBox="0 0 100 100">
  <!-- Generator: Adobe Illustrator 29.6.1, SVG Export Plug-In . SVG Version: 2.1.1 Build 9)  -->
  <defs>
    <style>
      .st0 {
        fill: #9d6d53;
      }
    </style>
  </defs>
  <path class="st0" d="M50,9c13.4,0,14.9,0,20.2.3,5.5.3,11,1.5,15,5.5,4,4,5.2,9.6,5.5,15,.3,5.3.3,6.8.3,20.2s0,14.9-.3,20.2c-.3,5.4-1.5,11.1-5.5,15s-9.6,5.2-15,5.5c-5.3.3-6.8.3-20.2.3s-14.9,0-20.2-.3c-5.4-.3-11.1-1.5-15-5.5s-5.2-9.6-5.5-15c-.3-5.3-.3-6.8-.3-20.2s0-14.9.3-20.2c.3-5.4,1.5-11.1,5.5-15,4-4,9.6-5.2,15-5.5,5.3-.3,6.8-.3,20.2-.3M50,0c-13.6,0-15.3,0-20.6.3-7.7.4-15.4,2.5-21,8.1C2.8,14,.7,21.7.3,29.4c-.3,5.3-.3,7-.3,20.6s0,15.3.3,20.6c.4,7.7,2.5,15.4,8.1,21,5.6,5.6,13.2,7.7,21,8.1,5.3.3,7,.3,20.6.3s15.3,0,20.6-.3c7.7-.4,15.4-2.5,21-8.1,5.6-5.6,7.7-13.2,8.1-21,.3-5.3.3-7,.3-20.6s0-15.3-.3-20.6c-.4-7.7-2.5-15.4-8.1-21-5.6-5.6-13.3-7.7-21-8.1-5.3-.3-7-.3-20.6-.3Z"/>
  <path class="st0" d="M50,24.3c-14.2,0-25.7,11.5-25.7,25.7s11.5,25.7,25.7,25.7,25.7-11.5,25.7-25.7-11.5-25.7-25.7-25.7h0ZM50,66.6c-9.2,0-16.7-7.5-16.7-16.7s7.5-16.7,16.7-16.7,16.7,7.5,16.7,16.7-7.5,16.7-16.7,16.7Z"/>
  <circle class="st0" cx="76.7" cy="23.3" r="6"/>
</svg>