<?xml version="1.0" encoding="UTF-8"?>
<svg id="Layer_1" xmlns="http://www.w3.org/2000/svg" version="1.1" viewBox="0 0 100 100">
  <!-- Generator: Adobe Illustrator 29.6.1, SVG Export Plug-In . SVG Version: 2.1.1 Build 9)  -->
  <defs>
    <style>
      .st0 {
        fill: #9d6d53;
        fill-rule: evenodd;
      }
    </style>
  </defs>
  <g id="WA_Logo">
    <path class="st0" d="M85.1,14.7C75.8,5.4,63.4.3,50.2.3,23.1.3,1,22.4,1,49.6s2.2,17.2,6.6,24.6L.5,99.7l26.1-6.9c7.2,3.9,15.3,6,23.5,6h0c27.1,0,49.3-22.1,49.3-49.3s-5.1-25.5-14.4-34.8h0ZM50.2,90.5h0c-7.3,0-14.5-2-20.8-5.7l-1.5-.9-15.5,4.1,4.1-15.1-1-1.6c-4.1-6.5-6.3-14.1-6.3-21.8,0-22.6,18.4-41,41-41s21.2,4.3,28.9,12c7.7,7.7,12,18,12,29,0,22.6-18.4,41-41,41h0ZM72.7,59.9c-1.3-.6-7.3-3.6-8.4-4-1.2-.4-1.9-.6-2.8.6s-3.2,4-3.9,4.8c-.7.8-1.4.9-2.7.3s-5.2-1.9-9.9-6.1c-3.7-3.2-6.1-7.3-6.9-8.5s0-1.9.5-2.5c.6-.6,1.3-1.4,1.8-2.1.6-.7.8-1.2,1.3-2,.4-.8.2-1.5-.1-2.1-.3-.6-2.8-6.7-3.8-9.2-1-2.4-2-2.1-2.8-2.1h-2.4c-.8,0-2.1.3-3.3,1.5-1.2,1.3-4.3,4.2-4.3,10.3s4.4,11.9,5,12.7,8.7,13.2,21,18.6c2.9,1.3,5.2,2,7,2.6,2.9.9,5.6.8,7.7.5,2.4-.4,7.3-3,8.3-5.9,1-2.9,1-5.3.7-5.9s-1.2-.8-2.4-1.5h0Z"/>
  </g>
</svg>